<svg xmlns="http://www.w3.org/2000/svg" xmlns:xlink="http://www.w3.org/1999/xlink" width="201" height="166.496" viewBox="0 0 201 166.496">
  <defs>
    <filter id="Path_3500" x="84.685" y="0" width="72.286" height="72.286" filterUnits="userSpaceOnUse">
      <feOffset input="SourceAlpha"/>
      <feGaussianBlur stdDeviation="4.5" result="blur"/>
      <feFlood flood-opacity="0.161"/>
      <feComposite operator="in" in2="blur"/>
      <feComposite in="SourceGraphic"/>
    </filter>
  </defs>
  <g id="Group_4613" data-name="Group 4613" transform="translate(-156 -2869.503)">
    <path id="Path_5328" data-name="Path 5328" d="M6943.459-530.688s-93.727,24.648-41.729,67.378,156.514,49,174.989,19.667,30.4-128.227-133.259-87.046" transform="translate(-6730.02 3461.577)" fill="#eceff4"/>
    <g id="Group_4603" data-name="Group 4603" transform="translate(-4.377 -5.662)">
      <g id="Group_3731" data-name="Group 3731" transform="translate(205.246 2890.726)">
        <g id="Group_3730" data-name="Group 3730" transform="translate(0 78.059)">
          <path id="Path_3499" data-name="Path 3499" d="M132.106,359.134c-.193-.544-2.095-1.664-4.422-2.475a21.415,21.415,0,0,0-.552-6.236c1.96-.9,3.934-2.046,4.1-3.1.332-2.14-2.931-7.042-3.759-7.437-.53-.253-2.736.326-5,1.436a21.423,21.423,0,0,0-4.684-4.062c.756-2.024,1.343-4.242.711-5.105-1.278-1.748-7.052-2.908-7.916-2.6-.542.192-1.657,2.082-2.467,4.4a21.419,21.419,0,0,0-6.341.364c-.881-1.888-1.986-3.728-3-3.886-2.139-.332-7.042,2.93-7.437,3.758-.235.493.248,2.436,1.211,4.525a21.431,21.431,0,0,0-4.446,4.938c-1.843-.64-3.719-1.06-4.5-.492-1.748,1.278-2.908,7.052-2.6,7.917.172.487,1.718,1.437,3.712,2.213a21.415,21.415,0,0,0,.427,6.9c-1.651.824-3.122,1.8-3.262,2.7-.332,2.14,2.931,7.042,3.758,7.438.456.217,2.151-.181,4.056-1A21.406,21.406,0,0,0,95,373.854c-.582,1.745-.93,3.465-.391,4.2,1.278,1.748,7.052,2.908,7.916,2.6.489-.172,1.442-1.726,2.219-3.726a21.444,21.444,0,0,0,6.779-.639c.847,1.741,1.868,3.342,2.813,3.488,2.139.332,7.042-2.93,7.437-3.758.237-.5-.253-2.455-1.225-4.555a21.411,21.411,0,0,0,4.134-5.022c1.944.7,4,1.209,4.822.607C131.252,365.772,132.412,360,132.106,359.134Z" transform="translate(-80.954 -329.505)" fill="#005558"/>
          <path id="Path_3500-2" data-name="Path 3500" d="M119.759,355.344a10.91,10.91,0,1,0,6.959,13.771A10.922,10.922,0,0,0,119.759,355.344Z" transform="translate(-91.257 -339.709)" fill="#a4d1bc" stroke="#a4d1bc" stroke-width="4"/>
        </g>
        <g id="Group_3661" data-name="Group 3661" transform="translate(0 32.842)">
          <path id="Path_4373" data-name="Path 4373" d="M390.968,354.019v12.035l1.455.528a34.616,34.616,0,0,0,25.035-.528h0V353.925Z" transform="translate(-348.158 -256.442)" fill="#0f787a"/>
          <path id="Path_4374" data-name="Path 4374" d="M384.347,330.106v12.878l1.735.565a45.661,45.661,0,0,0,29.845-.565h0V330.006Z" transform="translate(-344.207 -242.168)" fill="#53b6b9"/>
          <g id="Group_3660" data-name="Group 3660" transform="translate(0 0)">
            <path id="Path_4375" data-name="Path 4375" d="M395.456,123.919c0-6.473-24.727-11.722-55.25-11.732h-.148c-30.523.011-55.25,5.26-55.25,11.732s24.727,11.722,55.25,11.733h.148C370.729,135.641,395.456,130.393,395.456,123.919Z" transform="translate(-284.807 -112.186)" fill="#0f787a"/>
            <path id="Path_4376" data-name="Path 4376" d="M396.3,148.692c-6.24,5.029-27.767,8.743-53.444,8.745s-47.2-3.716-53.444-8.745c-.01.008-.026.015-.036.023,37.518,38.864,38.773,84.434,38.773,84.434h30.222s.449-45.57,37.966-84.434C396.33,148.707,396.314,148.7,396.3,148.692Z" transform="translate(-287.535 -133.971)" fill="#53b6b9"/>
          </g>
        </g>
        <g transform="matrix(1, 0, 0, 1, -44.87, -15.56)" filter="url(#Path_3500)">
          <path id="Path_3500-3" data-name="Path 3500" d="M132.52,355.9a20.581,20.581,0,1,0,13.127,25.977A20.6,20.6,0,0,0,132.52,355.9Z" transform="translate(-5.27 -339.31)" fill="#ff5e4d" stroke="#ff5e4d" stroke-width="4"/>
        </g>
        <g id="Group_3725" data-name="Group 3725" transform="translate(66.43 8.035)">
          <path id="Path_3507" data-name="Path 3507" d="M396.745,215.563c0,2.743-2.223,6.589-4.967,6.589s-4.967-3.846-4.967-6.589a4.967,4.967,0,1,1,9.934,0Z" transform="translate(-381.924 -210.596)" fill="#fff"/>
          <path id="Path_3510" data-name="Path 3510" d="M396.935,245.846c-.679-5.6-4.832-9.906-9.859-9.906s-9.18,4.308-9.859,9.906Z" transform="translate(-377.217 -223.03)" fill="#fff"/>
        </g>
      </g>
    </g>
  </g>
</svg>
