<svg xmlns="http://www.w3.org/2000/svg" width="201" height="159.277" viewBox="0 0 201 159.277">
  <g id="Group_4611" data-name="Group 4611" transform="translate(-1368 -2876.722)">
    <path id="Path_5330" data-name="Path 5330" d="M6943.459-530.688s-93.727,24.648-41.729,67.378,156.514,49,174.989,19.667,30.4-128.227-133.259-87.046" transform="translate(-5518.02 3461.577)" fill="#eceff4"/>
    <path id="Path_4406" data-name="Path 4406" d="M74.117,10.366,76.228,2.8,85.481,24.4H64.447l4.959-5.42C38.794,3.625,25.83,9.313,7.066,26.6,9.018,22.9,14.271,12.69,24.444,6.527,33.2,2.091,38.452-.09,47.4.054A56.768,56.768,0,0,1,74.117,10.366Z" transform="translate(1489.372 2872.63) rotate(35)" fill="#ff5e4d"/>
    <path id="Path_4407" data-name="Path 4407" d="M63.118,3.721c-7.033,7.745-15.608,12.6-25.991,13.97A38.789,38.789,0,0,1,8.4,10.4L6.84,15.977,0,0H15.576L11.813,4.108C29.137,14.638,46.152,14.579,63.118,3.721Z" transform="matrix(0.602, 0.799, -0.799, 0.602, 1413.13, 2916.904)" fill="#ff5e4d"/>
    <g id="Group_4604" data-name="Group 4604" transform="translate(-6 4)">
      <rect id="Rectangle_345" data-name="Rectangle 345" width="65.544" height="32.224" rx="10" transform="translate(1417.789 2977.698)" fill="#005558"/>
      <path id="Path_4388" data-name="Path 4388" d="M243.709,200.827H172.7a10.534,10.534,0,0,0-10.534,10.534v64.675a10.534,10.534,0,0,1-10.534,10.534h92.073a10.534,10.534,0,0,0,10.534-10.534V211.361A10.534,10.534,0,0,0,243.709,200.827Z" transform="translate(1277.892 2723.353)" fill="#a4d1bc"/>
      <path id="Path_4389" data-name="Path 4389" d="M251.061,239.552a14.71,14.71,0,1,0,9.98,25.5l-9.98-9.98Z" transform="translate(1211.412 2692.964)" fill="#ff5e4d"/>
      <path id="Path_4390" data-name="Path 4390" d="M304.7,239.552v15.516l14.545-2.9A14.7,14.7,0,0,0,304.7,239.552Z" transform="translate(1157.778 2692.964)" fill="#ff5e4d"/>
      <path id="Path_4391" data-name="Path 4391" d="M319.407,300.253a14.755,14.755,0,0,0-.166-2.1l-14.545,2.9,9.98,9.98A14.654,14.654,0,0,0,319.407,300.253Z" transform="translate(1157.778 2646.973)" fill="#005558"/>
      <path id="Path_4392" data-name="Path 4392" d="M335.607,404.8a2.893,2.893,0,1,1,2.893-2.893A2.893,2.893,0,0,1,335.607,404.8Z" transform="translate(1135.79 2567.826)" fill="#fff"/>
      <path id="Path_4393" data-name="Path 4393" d="M294.144,404.8a2.893,2.893,0,1,1,2.893-2.893A2.893,2.893,0,0,1,294.144,404.8Z" transform="translate(1168.329 2567.826)" fill="#fff"/>
      <path id="Path_4394" data-name="Path 4394" d="M252.681,404.8a2.893,2.893,0,1,1,2.893-2.893A2.893,2.893,0,0,1,252.681,404.8Z" transform="translate(1200.867 2567.826)" fill="#fff"/>
      <g id="Group_3733" data-name="Group 3733" transform="translate(1452.734 2983.36)">
        <path id="Path_4395" data-name="Path 4395" d="M285.524,475.766H260.6a1.15,1.15,0,0,0-1.149,1.15h0a1.15,1.15,0,0,0,1.149,1.15h24.925a1.15,1.15,0,0,0,1.15-1.15h0A1.15,1.15,0,0,0,285.524,475.766Z" transform="translate(-259.449 -475.766)" fill="#005558"/>
        <path id="Path_4396" data-name="Path 4396" d="M415.119,475.766H396.908a1.15,1.15,0,0,0-1.15,1.15h0a1.15,1.15,0,0,0,1.15,1.15h18.211a1.15,1.15,0,0,0,1.15-1.15h0A1.15,1.15,0,0,0,415.119,475.766Z" transform="translate(-366.418 -475.766)" fill="#005558"/>
        <path id="Path_4397" data-name="Path 4397" d="M512.1,475.766h-12a1.15,1.15,0,0,0-1.15,1.15h0a1.15,1.15,0,0,0,1.15,1.15h12a1.15,1.15,0,0,0,1.15-1.15h0A1.15,1.15,0,0,0,512.1,475.766Z" transform="translate(-447.399 -475.766)" fill="#005558"/>
        <path id="Path_4398" data-name="Path 4398" d="M273.521,497.558H260.6a1.15,1.15,0,0,0-1.149,1.15h0a1.149,1.149,0,0,0,1.149,1.15h12.923a1.15,1.15,0,0,0,1.15-1.15h0A1.15,1.15,0,0,0,273.521,497.558Z" transform="translate(-259.449 -492.867)" fill="#005558"/>
        <path id="Path_4399" data-name="Path 4399" d="M364,497.558H341.145a1.15,1.15,0,0,0-1.15,1.15h0a1.15,1.15,0,0,0,1.15,1.15H364a1.15,1.15,0,0,0,1.15-1.15h0A1.15,1.15,0,0,0,364,497.558Z" transform="translate(-322.658 -492.867)" fill="#005558"/>
        <path id="Path_4400" data-name="Path 4400" d="M485.277,497.558H465.917a1.15,1.15,0,0,0-1.15,1.15h0a1.15,1.15,0,0,0,1.15,1.15h19.361a1.15,1.15,0,0,0,1.15-1.15h0A1.15,1.15,0,0,0,485.277,497.558Z" transform="translate(-420.573 -492.867)" fill="#005558"/>
        <path id="Path_4401" data-name="Path 4401" d="M440.065,519.352H464.99a1.149,1.149,0,0,1,1.15,1.149h0a1.15,1.15,0,0,1-1.15,1.15H440.065a1.15,1.15,0,0,1-1.15-1.15h0A1.15,1.15,0,0,1,440.065,519.352Z" transform="translate(-400.286 -509.97)" fill="#005558"/>
        <path id="Path_4402" data-name="Path 4402" d="M334.949,519.352H353.16a1.149,1.149,0,0,1,1.15,1.149h0a1.15,1.15,0,0,1-1.15,1.15H334.949a1.15,1.15,0,0,1-1.15-1.15h0A1.149,1.149,0,0,1,334.949,519.352Z" transform="translate(-317.796 -509.97)" fill="#005558"/>
        <path id="Path_4403" data-name="Path 4403" d="M260.6,519.352h12a1.149,1.149,0,0,1,1.149,1.149h0a1.15,1.15,0,0,1-1.149,1.15h-12a1.15,1.15,0,0,1-1.149-1.15h0A1.149,1.149,0,0,1,260.6,519.352Z" transform="translate(-259.449 -509.97)" fill="#005558"/>
        <path id="Path_4404" data-name="Path 4404" d="M279.215,541.144H260.6a1.149,1.149,0,0,0-1.149,1.15h0a1.15,1.15,0,0,0,1.149,1.15h18.617a1.15,1.15,0,0,0,1.15-1.15h0A1.15,1.15,0,0,0,279.215,541.144Z" transform="translate(-259.449 -527.072)" fill="#005558"/>
        <path id="Path_4405" data-name="Path 4405" d="M392.119,541.144H367.6a1.15,1.15,0,0,0-1.15,1.15h0a1.15,1.15,0,0,0,1.15,1.15h24.519a1.15,1.15,0,0,0,1.15-1.15h0A1.149,1.149,0,0,0,392.119,541.144Z" transform="translate(-343.419 -527.072)" fill="#005558"/>
      </g>
      <g id="Group_3734" data-name="Group 3734" transform="translate(1485.688 2932.516)">
        <rect id="Rectangle_346" data-name="Rectangle 346" width="5.829" height="20.318" transform="translate(0 8.406)" fill="#005558"/>
        <rect id="Rectangle_347" data-name="Rectangle 347" width="5.829" height="24.189" transform="translate(10.456 4.535)" fill="#005558"/>
        <rect id="Rectangle_348" data-name="Rectangle 348" width="5.829" height="20.733" transform="translate(20.912 7.991)" fill="#005558"/>
        <rect id="Rectangle_349" data-name="Rectangle 349" width="5.829" height="28.724" transform="translate(31.368)" fill="#005558"/>
      </g>
    </g>
  </g>
</svg>
