<svg xmlns="http://www.w3.org/2000/svg" width="210.796" height="169.041" viewBox="0 0 210.796 169.041">
  <g id="Group_4608" data-name="Group 4608" transform="translate(-131.204 -3557.826)">
    <path id="Path_5333" data-name="Path 5333" d="M6943.459-530.688s-93.727,24.648-41.729,67.378,156.514,49,174.989,19.667,30.4-128.227-133.259-87.046" transform="translate(-6745.02 4128.577)" fill="#eceff4"/>
    <path id="Path_4412" data-name="Path 4412" d="M1242.346,184.311c0,3.261.041,6.452-.01,9.642a19.184,19.184,0,0,1-4.069,12.3,17.26,17.26,0,0,1-1.826,1.945c-1.8,1.608-1.812,1.589-3.26.5,1.021-1.311,2.113-2.7,3.192-4.1a14.982,14.982,0,0,0,3.327-9.906c-.1-3.091,0-6.19.071-9.284.021-.925-.255-1.233-1.221-1.333-10.1-1.036-17.8-9.192-18.6-19.624a21.1,21.1,0,1,1,23.677,19.653C1243.215,184.149,1242.811,184.234,1242.346,184.311ZM1222.2,163.137a18.81,18.81,0,1,0,37.619-.013c.106-9.988-8.619-18.749-18.668-18.742A18.967,18.967,0,0,0,1222.2,163.137Z" transform="translate(-944.116 3480.792)" fill="#ff5e4d" stroke="#ff5e4d" stroke-width="1"/>
    <path id="Path_4413" data-name="Path 4413" d="M1162.227,183.431l-7.343-12.748h5.919v-2.072c0-5.8-.133-11.6.028-17.4.185-6.652.964-19.535-16-17.376.245-.267-.377-1.192.409-1.442,1.792-.588,9.359-2.313,14.393,1.8,4.1,3.995,3.919,9.618,3.978,15.323.064,6.331.017,12.663.019,18.994,0,.641,0,1.282,0,2.112h5.943Z" transform="translate(-903.387 3464.992)" fill="#002f4c" stroke="#002f4c" stroke-width="1"/>
    <path id="Path_4414" data-name="Path 4414" d="M1191.9,301.437l10.948,6.343-10.859,6.314c0-1.485-.032-2.728.011-3.968.03-.835-.169-1.238-1.123-1.4a17.107,17.107,0,0,1-14.442-15.683c-.26-3.162-.042-6.364-.042-9.54h2.283c0,2.766-.024,5.585,0,8.4.072,7.031,5.853,13.592,12.714,14.456a3.847,3.847,0,0,0,.506-.036Z" transform="translate(-922.495 3384.807)" fill="#002f4c" stroke="#002f4c" stroke-width="1"/>
    <path id="Path_4415" data-name="Path 4415" d="M1269.23,175.722l1.87,1.226c-1.524,2.393-3,4.719-4.484,7.039q-2.863,4.476-5.738,8.944c-.712,1.107-1.471,1.235-2.253.295-1.658-1.994-3.266-4.03-4.982-6.157l1.71-1.425,4.215,5.148Z" transform="translate(-965.726 3457.661)" fill="#002f4c"/>
    <g id="Group_4607" data-name="Group 4607">
      <g id="Group_4606" data-name="Group 4606" transform="translate(7.559 8.324)">
        <g id="Group_4605" data-name="Group 4605" transform="translate(128.004 3554.303)">
          <path id="Path_4408" data-name="Path 4408" d="M99.757,18.9a11.7,11.7,0,0,1,6.061,15.391l-44.79,96.7a11.7,11.7,0,0,1-15.66,5.329L7.079,118.576a11.7,11.7,0,0,1-6.063-15.391l44.792-96.7A11.7,11.7,0,0,1,61.466,1.16Z" transform="matrix(0.914, -0.407, 0.407, 0.914, -4.359, 38.653)" fill="#002f4c"/>
          <path id="Path_4409" data-name="Path 4409" d="M92.812,18.5c5.346,2.477,5.607,7.619,3.245,12.72L54.927,120.017c-2.363,5.1-6.454,8.227-11.8,5.75L5.4,108.293c-5.348-2.477-6.63-7.3-4.267-12.4L42.868,5.8C45.23.7,49.74-1.446,55.086,1.031Z" transform="matrix(0.914, -0.407, 0.407, 0.914, 2.146, 41.781)" fill="#53b6b9"/>
          <rect id="Rectangle_350" data-name="Rectangle 350" width="81.893" height="52.576" transform="translate(45.502 120.27) rotate(-89.146)" fill="#fff"/>
          <path id="Path_4410" data-name="Path 4410" d="M2.241,7.37A3.864,3.864,0,1,0,.359,2.24,3.863,3.863,0,0,0,2.241,7.37Z" transform="matrix(0.914, -0.407, 0.407, 0.914, 67.047, 129.869)" fill="#fff"/>
          <path id="Path_4411" data-name="Path 4411" d="M19.3,9.638c.114.054.283-.067.376-.269h0c.093-.2.078-.411-.038-.464L.438.013C.324-.041.155.08.061.282h0C-.034.486-.016.693.1.745Z" transform="matrix(0.914, -0.407, 0.407, 0.914, 62.336, 27.96)" fill="#fff"/>
        </g>
      </g>
    </g>
  </g>
</svg>
