<svg xmlns="http://www.w3.org/2000/svg" width="201" height="139.76" viewBox="0 0 201 139.76">
  <g id="Group_4610" data-name="Group 4610" transform="translate(-1368 -3566.866)">
    <path id="Path_5331" data-name="Path 5331" d="M6943.459-530.688s-93.727,24.648-41.729,67.378,156.514,49,174.989,19.667,30.4-128.227-133.259-87.046" transform="translate(-5518.02 4128.577)" fill="#eceff4"/>
    <g id="Group_4600" data-name="Group 4600" transform="translate(24 -1)">
      <g id="Group_3755" data-name="Group 3755">
        <g id="Group_3747" data-name="Group 3747" transform="translate(1492.499 3634.05)">
          <g id="Group_3746" data-name="Group 3746" transform="translate(0 0)">
            <path id="Path_4422" data-name="Path 4422" d="M156.371,72.446a13.007,13.007,0,1,0-.741,18.38A13.008,13.008,0,0,0,156.371,72.446ZM142.535,85.208a5.816,5.816,0,1,1,8.218.33A5.816,5.816,0,0,1,142.535,85.208Z" transform="translate(-129.193 -63.51)" fill="#005558"/>
            <rect id="Rectangle_355" data-name="Rectangle 355" width="5.645" height="5.645" transform="translate(24.77 7.555) rotate(-42.689)" fill="#005558"/>
            <rect id="Rectangle_356" data-name="Rectangle 356" width="5.645" height="5.645" transform="translate(2.879 27.748) rotate(-42.691)" fill="#005558"/>
            <rect id="Rectangle_357" data-name="Rectangle 357" width="5.645" height="5.645" transform="matrix(0.735, -0.678, 0.678, 0.735, 23.921, 28.597)" fill="#005558"/>
            <rect id="Rectangle_358" data-name="Rectangle 358" width="5.645" height="5.645" transform="matrix(0.735, -0.678, 0.678, 0.735, 3.728, 6.706)" fill="#005558"/>
            <rect id="Rectangle_359" data-name="Rectangle 359" width="5.645" height="5.645" transform="matrix(0.04, -0.999, 0.999, 0.04, 15.479, 5.64)" fill="#005558"/>
            <rect id="Rectangle_360" data-name="Rectangle 360" width="5.645" height="5.645" transform="translate(14.279 35.398) rotate(-87.689)" fill="#005558"/>
            <rect id="Rectangle_361" data-name="Rectangle 361" width="5.645" height="5.645" transform="translate(29.758 21.119) rotate(-87.689)" fill="#005558"/>
            <rect id="Rectangle_362" data-name="Rectangle 362" width="5.645" height="5.645" transform="translate(0 19.919) rotate(-87.691)" fill="#005558"/>
          </g>
        </g>
        <g id="Group_3749" data-name="Group 3749" transform="translate(1440.866 3567.866)">
          <g id="Group_3748" data-name="Group 3748" transform="translate(0 0)">
            <path id="Path_4423" data-name="Path 4423" d="M145.046,63.79a22.7,22.7,0,1,0-1.3,32.074A22.7,22.7,0,0,0,145.046,63.79Z" transform="translate(-97.617 -48.196)" fill="#ff5e4d"/>
            <rect id="Rectangle_363" data-name="Rectangle 363" width="9.851" height="9.851" transform="matrix(0.735, -0.678, 0.678, 0.735, 43.227, 13.186)" fill="#ff5e4d"/>
            <rect id="Rectangle_364" data-name="Rectangle 364" width="9.851" height="9.851" transform="matrix(0.735, -0.678, 0.678, 0.735, 5.025, 48.425)" fill="#ff5e4d"/>
            <rect id="Rectangle_365" data-name="Rectangle 365" width="9.851" height="9.851" transform="translate(41.746 49.907) rotate(-42.689)" fill="#ff5e4d"/>
            <rect id="Rectangle_366" data-name="Rectangle 366" width="9.851" height="9.851" transform="translate(6.506 11.704) rotate(-42.689)" fill="#ff5e4d"/>
            <rect id="Rectangle_367" data-name="Rectangle 367" width="9.851" height="9.851" transform="matrix(0.04, -0.999, 0.999, 0.04, 27.013, 9.843)" fill="#ff5e4d"/>
            <rect id="Rectangle_368" data-name="Rectangle 368" width="9.851" height="9.851" transform="translate(24.918 61.775) rotate(-87.689)" fill="#ff5e4d"/>
            <rect id="Rectangle_369" data-name="Rectangle 369" width="9.851" height="9.851" transform="translate(51.932 36.857) rotate(-87.689)" fill="#ff5e4d"/>
            <rect id="Rectangle_370" data-name="Rectangle 370" width="9.851" height="9.851" transform="translate(0 34.762) rotate(-87.69)" fill="#ff5e4d"/>
          </g>
        </g>
        <g id="Group_3754" data-name="Group 3754" transform="translate(-15 -1)">
          <g id="Group_3751" data-name="Group 3751" transform="translate(1396.826 3634.826)">
            <path id="Path_3500" data-name="Path 3500" d="M152.483,356.593a35.847,35.847,0,1,0,22.864,45.246A35.888,35.888,0,0,0,152.483,356.593Z" transform="translate(-105.442 -354.798)" fill="#a4d1bc" stroke="#a4d1bc" stroke-width="4"/>
            <path id="Path_3499" data-name="Path 3499" d="M134.137,360.31c-.2-.565-2.178-1.73-4.6-2.573a22.266,22.266,0,0,0-.574-6.483c2.038-.932,4.09-2.127,4.26-3.223.345-2.225-3.047-7.322-3.908-7.732-.551-.263-2.845.339-5.2,1.493a22.278,22.278,0,0,0-4.87-4.224c.786-2.1,1.4-4.41.739-5.308-1.329-1.817-7.332-3.023-8.23-2.7-.564.2-1.723,2.165-2.565,4.574a22.271,22.271,0,0,0-6.593.378c-.916-1.963-2.065-3.877-3.122-4.04-2.224-.346-7.322,3.047-7.732,3.907-.244.512.258,2.532,1.259,4.7a22.284,22.284,0,0,0-4.622,5.134c-1.916-.666-3.866-1.1-4.675-.511-1.817,1.329-3.023,7.332-2.7,8.231.179.506,1.786,1.494,3.859,2.3a22.266,22.266,0,0,0,.444,7.17c-1.717.856-3.246,1.869-3.391,2.808-.345,2.225,3.047,7.322,3.907,7.733.474.226,2.237-.188,4.217-1.042a22.257,22.257,0,0,0,5.518,4.711c-.605,1.815-.966,3.6-.407,4.368,1.328,1.818,7.332,3.023,8.23,2.7.508-.179,1.5-1.794,2.307-3.874a22.3,22.3,0,0,0,7.048-.664c.88,1.811,1.942,3.475,2.925,3.627,2.224.346,7.322-3.046,7.732-3.907.246-.515-.263-2.552-1.274-4.736a22.259,22.259,0,0,0,4.3-5.222c2.021.731,4.158,1.257,5.014.631C133.249,367.212,134.455,361.21,134.137,360.31Z" transform="translate(-71.21 -320.608)" fill="#005558"/>
          </g>
          <path id="Path_4424" data-name="Path 4424" d="M121.373,355.406a12.14,12.14,0,1,0,7.743,15.323A12.154,12.154,0,0,0,121.373,355.406Z" transform="translate(1314.684 3303.328)" fill="#fff"/>
        </g>
      </g>
      <path id="Path_4565" data-name="Path 4565" d="M12.93,5.521c-1.418,0-2.836.01-4.254,0C6.767,5.5,5.531,4.391,5.55,2.727A2.8,2.8,0,0,1,8.63.023C12.317,0,16-.011,19.692.026A2.793,2.793,0,0,1,22.713,3.1q.031,5.531,0,11.062c-.012,1.949-1.12,3.117-2.832,3.068-1.584-.045-2.6-1.246-2.634-3.137-.026-1.387-.035-2.774-.056-4.16,0-.032-.053-.064-.18-.2-.4.368-.811.729-1.2,1.117q-5.336,5.33-10.663,10.668c-1.509,1.511-3.181,1.673-4.392.419-1.152-1.193-.987-2.774.518-4.292q5.507-5.56,11.052-11.084c.234-.234.5-.436.751-.653Z" transform="translate(1480.242 3611.654) rotate(-167)" fill="#fff"/>
    </g>
  </g>
</svg>
