<svg xmlns="http://www.w3.org/2000/svg" xmlns:xlink="http://www.w3.org/1999/xlink" width="211.085" height="209.062" viewBox="0 0 211.085 209.062">
  <defs>
    <filter id="Path_3500" x="36.696" y="7.909" width="75.658" height="75.658" filterUnits="userSpaceOnUse">
      <feOffset input="SourceAlpha"/>
      <feGaussianBlur stdDeviation="4.5" result="blur"/>
      <feFlood flood-opacity="0.161"/>
      <feComposite operator="in" in2="blur"/>
      <feComposite in="SourceGraphic"/>
    </filter>
  </defs>
  <g id="Group_4609" data-name="Group 4609" transform="translate(-746.896 -3541.091)">
    <path id="Path_5332" data-name="Path 5332" d="M6943.459-530.688s-93.727,24.648-41.729,67.378,156.514,49,174.989,19.667,30.4-128.227-133.259-87.046" transform="translate(-6139.02 4128.577)" fill="#eceff4"/>
    <g id="Group_4601" data-name="Group 4601">
      <g id="Group_3742" data-name="Group 3742" transform="translate(835.904 3540.476) rotate(38)">
        <path id="Path_4416" data-name="Path 4416" d="M76.557,143.792,155.528,85.44S91.579-4.028,83.052.141,74.4,10.559,74.4,10.559s-17.215-6.944-31.485,1S0,40.185,0,40.185Z" transform="translate(0 0.781)" fill="#53b6b9"/>
        <path id="Path_4417" data-name="Path 4417" d="M0,11.11C5.41,8.259,29.941-3.125,40.229.823,31.964,2.813,29,11.34,29,11.34S12.575,5.469,0,11.11Z" transform="translate(45.406 0)" fill="#005558"/>
      </g>
      <g id="Group_3743" data-name="Group 3743" transform="translate(844.985 3635.322)">
        <path id="Path_4418" data-name="Path 4418" d="M0,0,37.17.582l.006,5L.006,5Z" transform="translate(0.073 -1.58) rotate(-1)" fill="#005558"/>
        <path id="Path_5166" data-name="Path 5166" d="M0,0,37.17.54l.006,4.641L.006,4.641Z" transform="translate(0.073 14.42) rotate(-1)" fill="#005558"/>
        <path id="Path_5167" data-name="Path 5167" d="M0,0,37.17.492l.006,4.234L.006,4.234Z" transform="translate(0.061 29.715) rotate(-1)" fill="#005558"/>
      </g>
      <rect id="Rectangle_354" data-name="Rectangle 354" width="11" height="11" transform="translate(824 3632)" fill="#fff"/>
      <path id="Path_4421" data-name="Path 4421" d="M0,0H11.113V11.113H0Z" transform="translate(824.267 3645.949)" fill="#fff"/>
      <rect id="Rectangle_354-2" data-name="Rectangle 354" width="11" height="11" transform="translate(824 3660)" fill="#fff"/>
      <g id="Group_3744" data-name="Group 3744" transform="translate(799.157 3564.565)">
        <g transform="matrix(1, 0, 0, 1, -52.26, -23.47)" filter="url(#Path_3500)">
          <path id="Path_3500-2" data-name="Path 3500" d="M134.727,355.983a22.262,22.262,0,1,0,14.2,28.1A22.287,22.287,0,0,0,134.727,355.983Z" transform="translate(-53.25 -331.39)" fill="#ff5e4d" stroke="#ff5e4d" stroke-width="4"/>
        </g>
        <g id="Group_3725" data-name="Group 3725" transform="translate(11.958 8.691)">
          <path id="Path_3507" data-name="Path 3507" d="M397.556,215.969c0,2.967-2.4,7.128-5.373,7.128s-5.373-4.16-5.373-7.128a5.373,5.373,0,1,1,10.745,0Z" transform="translate(-381.525 -210.596)" fill="#fff"/>
          <path id="Path_3510" data-name="Path 3510" d="M398.546,246.655c-.734-6.055-5.227-10.715-10.664-10.715s-9.931,4.66-10.665,10.715Z" transform="translate(-377.217 -221.976)" fill="#fff"/>
        </g>
      </g>
    </g>
  </g>
</svg>
