<svg xmlns="http://www.w3.org/2000/svg" width="202.293" height="452.01" viewBox="0 0 202.293 452.01">
  <g id="Group_3296" data-name="Group 3296" transform="translate(-47.365 -59.508)">
    <g id="Group_3295" data-name="Group 3295" transform="translate(47.365 59.508)">
      <path id="Path_3794" data-name="Path 3794" d="M479.35,342.515c6.113-7.272,37.639-47.906,2.42-54.47,0,0-2.735-26.427-30.333-26.933,0,0-17.466.921-14.473,18.664,0,0-16.653,2.467-9.271,19.461,0,0-21.012-13.825-37.123,4.87s5.84,41.634,5.84,41.634-20.374.357-12.989,19.592c15.236,39.686,61.96,20.606,61.96,20.606S467.63,356.467,479.35,342.515Z" transform="translate(-368.046 -259.758)" fill="#295a6e"/>
      <path id="Path_3795" data-name="Path 3795" d="M486.546,317.284c1.617-2.495,2.843-7.3,3.338-10.262a15.213,15.213,0,0,0-1.42-9.32,15.037,15.037,0,0,0-6.686-6.43,38.192,38.192,0,0,0-8.816-3.179l.753.818a36.389,36.389,0,0,0-3.137-10.767,30.255,30.255,0,0,0-6.664-9.234,26.9,26.9,0,0,0-9.934-6.069,31.51,31.51,0,0,0-5.689-1.526c-1.929-.368-3.9-.388-5.847-.595l-.036,0-.068.007a21.873,21.873,0,0,0-7.217,1.873,15.611,15.611,0,0,0-5.833,4.595,14.106,14.106,0,0,0-2.8,6.712,21.847,21.847,0,0,0-.222,3.55c.075,1.168.24,2.323.362,3.485l1.1-1.457a18.525,18.525,0,0,0-6.593,2.615,11.918,11.918,0,0,0-4.61,5.337,12.966,12.966,0,0,0-.778,6.808c.15,1.117.488,2.182.742,3.265l1.194,3.079,1.577-1.223a36.1,36.1,0,0,0-9.812-3.9,29.1,29.1,0,0,0-10.526-.629,23.662,23.662,0,0,0-9.805,3.485,25.819,25.819,0,0,0-4.112,3.062c-1.269,1.131-2.312,2.478-3.467,3.691a32.635,32.635,0,0,1,7.948-6.155,22.609,22.609,0,0,1,9.579-2.815,29.007,29.007,0,0,1,9.934.979,34.237,34.237,0,0,1,9.063,3.956s1.957,2.083,2.567,1.632-.989-2.859-.989-2.859l-1-2.89c-.183-.979-.459-1.959-.552-2.935a11.576,11.576,0,0,1,.738-5.622,9.518,9.518,0,0,1,3.757-4.223,16.077,16.077,0,0,1,5.553-2.145l1.212-.216-.1-1.241c-.09-1.052-.229-2.1-.287-3.145a19.109,19.109,0,0,1,.233-3.086,11.46,11.46,0,0,1,2.348-5.5,12.755,12.755,0,0,1,4.847-3.711,19.075,19.075,0,0,1,6.1-1.677h-.1c1.8.182,3.649.172,5.428.495a28.621,28.621,0,0,1,5.227,1.333,24.408,24.408,0,0,1,9.1,5.413,30.094,30.094,0,0,1,6.31,8.444,34.6,34.6,0,0,1,3.331,9.99l.108.667.645.155a36.3,36.3,0,0,1,8.479,2.725,14.67,14.67,0,0,1,6.389,5.567c1.456,2.45,1.463,6.155,1.215,8.815C488.059,309.872,487.955,314.673,486.546,317.284Z" transform="translate(-359.024 -260.718)" fill="#ffedcc"/>
      <g id="Group_3287" data-name="Group 3287" transform="translate(0 433.468)">
        <g id="Group_3285" data-name="Group 3285" transform="translate(0 4.876)">
          <path id="Path_3796" data-name="Path 3796" d="M413.97,401.831c-5.955-.883,1.6-10.447,8.149-11.471-1.782.839-3.958,2.048-1.19,2.67,4.051.907,9.655-2.533,12.336-4.76a11.243,11.243,0,0,1,1.108,5.591C434.3,395.917,420.925,402.865,413.97,401.831Z" transform="translate(-411.81 -388.27)" fill="#30193b"/>
        </g>
        <g id="Group_3286" data-name="Group 3286" transform="translate(7.741)">
          <path id="Path_3797" data-name="Path 3797" d="M413.657,397.5c-2.839-.405-1.24-3.2.771-4.3,6.837-3.753,6.485-6.306,6.485-6.306l3.417-.045s1.226,4.388,1.506,4.876C424.039,394.2,419.683,398.371,413.657,397.5Z" transform="translate(-412.121 -386.851)" fill="#ff97a6"/>
        </g>
      </g>
      <g id="Group_3290" data-name="Group 3290" transform="translate(85.677 435.217)">
        <g id="Group_3288" data-name="Group 3288" transform="translate(0 5.502)">
          <path id="Path_3798" data-name="Path 3798" d="M415.427,397.247c.082-2.811-8.457-6.952-14.573-8.286,1.649,1.024,3.649,2.5,1.025,3.176-3.836.993-12.2-.272-14.648-2.949A16.294,16.294,0,0,0,386,395.769C386,398.2,415.363,399.322,415.427,397.247Z" transform="translate(-385.998 -388.961)" fill="#30193b"/>
        </g>
        <g id="Group_3289" data-name="Group 3289" transform="translate(1.233)">
          <path id="Path_3799" data-name="Path 3799" d="M403.808,396.038c2.624-.68,3.449-2.416-.527-3.086a30.71,30.71,0,0,1-7.077-2.161c-1.671-.739-2.259-3.313-2.259-3.313l-3.2-.117s-1.3,5.158-1.581,5.729C391.6,395.766,399.972,397.031,403.808,396.038Z" transform="translate(-389.16 -387.36)" fill="#ff97a6"/>
        </g>
      </g>
      <g id="Group_3291" data-name="Group 3291" transform="translate(14.889 130.421)">
        <path id="Path_3800" data-name="Path 3800" d="M498.216,347.49c-3.736-20.056-17.093-41.576-20.922-43.249-20.4-8.433-53.733-5-57.544-4.213-3.657,2-29.931,37.253-33.993,58.426-9.726,50.7-3.689,225.949-4,243.854-.014.825,3.474,1,3.728.23,3.481-10.567,28.874-82.186,41.665-143.794,8.8-42.373,14.308-78.457,16.617-79.763,6.105,18.53,5.743,190.913,9.572,224.485.638,5.6,3.474,3.392,4.524-1.055,3.743-15.791,32.108-87.956,39.106-153.1C501.783,404.459,502.967,372.983,498.216,347.49Z" transform="translate(-380.188 -298.669)" fill="#ff97a6"/>
      </g>
      <path id="Path_3801" data-name="Path 3801" d="M491.967,308.632s7.736,3.426,17.81,38.858,8.03,118.748,4.359,138.536c0,0-46.8,13.54-109.086,1.041V424.582l-9.78,60.749s-10.138.694-16.3-2.083c0,0,3.624-124.628,30.423-159.688l22.5-24.891Z" transform="translate(-376.86 -168.247)" fill="#3b2b5b"/>
      <path id="Path_3802" data-name="Path 3802" d="M478.248,492.541s-1.678.041-2.535.052a271.453,271.453,0,0,1-57.579-5.526V424.582l-9.78,60.749s-10.139.694-16.3-2.083c0,0,3.624-124.628,30.423-159.688l22.5-24.891,38.349,6.361S462.757,353.4,466.539,399.7C470.447,447.535,478.248,492.541,478.248,492.541Z" transform="translate(-389.942 -168.247)" fill="#30193b"/>
      <path id="Path_3803" data-name="Path 3803" d="M376.935,280.517c-2.463-.333,7.919,25.5,10.207,32.792,1.879,6,10.533,28.046,10.533,28.046s6.64,26.073,16.509,10.052C423.386,336.468,394.613,282.916,376.935,280.517Z" transform="translate(-267.012 -212.483)" fill="#c43b72"/>
      <path id="Path_3804" data-name="Path 3804" d="M387.383,300.836a360.3,360.3,0,0,1-2.291,51.36s.276,4.976,23.686,8.9c22.059,3.7,43.6-5.148,43.6-5.148s.1-17.685,1.316-37.569c1.305-21.334-1.993-32.576-6.234-34.631-1.714-.832-28.842-9.172-49.341-.107A18.116,18.116,0,0,0,387.383,300.836Z" transform="translate(-335.628 -215.062)" fill="#c43b72"/>
      <g id="Group_3292" data-name="Group 3292" transform="translate(86.266 56.566)">
        <path id="Path_3805" data-name="Path 3805" d="M394.935,277.178s-3.334,8.794-2.8,9.935,2.954,2.952,4.965.959,2.036-10.169,2.036-10.169Z" transform="translate(-392.074 -277.178)" fill="#ff97a6"/>
        <path id="Path_3806" data-name="Path 3806" d="M392.1,282.2a7.1,7.1,0,0,0,5.686,1.361,32.445,32.445,0,0,0,.631-4.959l-4.858-.835C393.1,279.033,392.533,280.707,392.1,282.2Z" transform="translate(-391.433 -275.748)" fill="#c95d77"/>
      </g>
      <path id="Path_3807" data-name="Path 3807" d="M407.54,286.189c.491-1.093.237-5.155-.086-8.543a5.188,5.188,0,0,0-5.833-4.526c-4.535.505-9.522,1.323-10.823,2.258-2.04,1.467-1.9,4.409-1.853,6.6s.964,6.083,2.449,7.839c1.355,1.6,5.105,2.89,7.177,2.739C404.8,292.1,406.483,290.46,407.54,286.189Z" transform="translate(-303.192 -230.585)" fill="#ff97a6"/>
      <path id="Path_3808" data-name="Path 3808" d="M456.447,279.813c2.474.247-13.992,15.183-18.961,21.121-4.087,4.887-23.618,34.27-23.618,34.27s-16.358,10.732-16.473-7.873C397.276,308.319,439.425,278.112,456.447,279.813Z" transform="translate(-382.446 -214.359)" fill="#ba276a"/>
      <path id="Path_3809" data-name="Path 3809" d="M382.934,335.219s45.057-32.978,42.543-39.727-19.764-11.3-24.382-7.743-33.6,25.692-38.407,46.336C358.742,351.014,382.934,335.219,382.934,335.219Z" transform="translate(-225.348 -197.879)" fill="#c43b72"/>
      <path id="Path_3810" data-name="Path 3810" d="M395.242,300.833a360.3,360.3,0,0,1-2.291,51.36s.276,4.976,23.686,8.9a70.608,70.608,0,0,0,14.677.835c.792-.034,2.352-.137,2.352-.137s-12.2-31.95-12.2-55.367c0-16.582,7.7-26.97,7.7-26.97s-1.914,0-2.882.021a53.971,53.971,0,0,0-20.306,4.165A18.116,18.116,0,0,0,395.242,300.833Z" transform="translate(-343.486 -215.059)" fill="#ba276a"/>
      <path id="Path_3813" data-name="Path 3813" d="M418.622,303.573s31.555,53.759,26.619,59.144-21.205,3.182-24.124-1.759-22.457-42.229-18.968-63.117C405.006,280.712,418.622,303.573,418.622,303.573Z" transform="translate(-387.068 -185.777)" fill="#ba276a"/>
      <g id="Group_3294" data-name="Group 3294" transform="translate(46.787 177.866)">
        <path id="Path_3814" data-name="Path 3814" d="M403.174,316.665s1.007.914,2.061,1.742c1.2.948,2.466,1.787,2.377,1.048a7.184,7.184,0,0,0-1.542-2.876c-1.821-2.357-4.539-4.55-4.047-2.23A5.058,5.058,0,0,0,403.174,316.665Z" transform="translate(-396.538 -310.312)" fill="#ff97a6"/>
        <path id="Path_3815" data-name="Path 3815" d="M406.551,312.573c.477.079,1.283,1.2,1.531,1.6a35.331,35.331,0,0,1,3.237,6.251c.548,2.038-.463,8.207-1.506,8.8s-1.2-2.4-1.2-2.4.341,3.241-1.14,3.612-2.3-4.612-2.3-4.612-1.312,1.99-1.674.986a40.074,40.074,0,0,1-.81-5.344,16.156,16.156,0,0,1-.05-3.141c.43-1.608,1.516-5.677,1.81-5.78A6.186,6.186,0,0,1,406.551,312.573Z" transform="translate(-402.572 -312.475)" fill="#ff97a6"/>
      </g>
      <path id="Path_3816" data-name="Path 3816" d="M363.663,293.176c.319-.271,2.771-2.179,3.054-2.488l1.033-1.134c.064-.285.129-.567.183-.842a4.435,4.435,0,0,1,.731-2.361.269.269,0,0,1,.434.127,5.216,5.216,0,0,1,.14.591l-.014-.168c0-.052.068-.072.082-.021.018.069.021.131.036.2a5,5,0,0,1,.6-1.866c.4-.577.731-.326.954.086.183-.4.455-.718.835-.3a.7.7,0,0,1,.14.409.427.427,0,0,1,.308.134,11.318,11.318,0,0,1-.254,3.265c-.362,1.711-.631,3.409-1.879,4.43-.972.794-4.116,1.516-5.245,2.007a6.085,6.085,0,0,1-2.223.461c-.624-.285-.993-.54-.882-.708C362.387,293.977,362.58,294.093,363.663,293.176Z" transform="translate(-169.95 -202.041)" fill="#ff97a6"/>
    </g>
  </g>
</svg>
