<svg xmlns="http://www.w3.org/2000/svg" xmlns:xlink="http://www.w3.org/1999/xlink" width="538.407" height="550.788" viewBox="0 0 538.407 550.788">
  <defs>
    <linearGradient id="linear-gradient" x1="-13.808" y1="1.478" x2="-12.788" y2="1.478" gradientUnits="objectBoundingBox">
      <stop offset="0" stop-color="#eef7f6"/>
      <stop offset="1" stop-color="#b2deeb"/>
    </linearGradient>
    <linearGradient id="linear-gradient-2" x1="-20.518" y1="1.178" x2="-19.296" y2="1.178" xlink:href="#linear-gradient"/>
  </defs>
  <g id="Group_2949" data-name="Group 2949" transform="translate(-1182.458 -260.714)">
    <g id="Group_2926" data-name="Group 2926" transform="translate(1322.951 249.072)">
      <path id="Path_3393" data-name="Path 3393" d="M-377.609,310.3l-4.637-.817a25.721,25.721,0,0,0-1.294-6.837l3.873-2.546a2.148,2.148,0,0,0,.611-2.971l-4.722-7.17a2.144,2.144,0,0,0-2.967-.611l-3.794,2.5a26.115,26.115,0,0,0-4.673-3.458l.608-4.938a2.148,2.148,0,0,0-1.869-2.389l-8.575-1.049a2.139,2.139,0,0,0-2.389,1.866l-.372,3.026c-.128,0-.255-.02-.382-.02a25.951,25.951,0,0,0-7.748,1.18l-2.366-3.6a2.148,2.148,0,0,0-2.971-.611L-428.5,286.6a2.147,2.147,0,0,0-.611,2.971l2.183,3.314a26.159,26.159,0,0,0-4.337,6.023l-4.467-.791a2.143,2.143,0,0,0-2.484,1.739l-1.507,8.51a2.145,2.145,0,0,0,1.739,2.484l3.8.67a25.888,25.888,0,0,0,1.389,7.784l-3.529,2.85a2.144,2.144,0,0,0-.32,3.016l5.428,6.722a2.144,2.144,0,0,0,3.016.32l2.559-2.065a26.034,26.034,0,0,0,5.618,3.9l-.245,4.912a2.146,2.146,0,0,0,2.033,2.248l8.631.431a2.145,2.145,0,0,0,2.248-2.036l.137-2.732a25.824,25.824,0,0,0,7.974-1.569l1.457,2.84a2.145,2.145,0,0,0,2.885.928l7.637-3.918a2.143,2.143,0,0,0,.931-2.886l-2.229-4.34a25.966,25.966,0,0,0,3.817-5.824l4.9.866a2.143,2.143,0,0,0,2.484-1.739l1.493-8.454A2.145,2.145,0,0,0-377.609,310.3Zm-30.585,20.51A19.927,19.927,0,0,1-428.1,310.9,19.928,19.928,0,0,1-408.193,291,19.926,19.926,0,0,1-388.288,310.9,19.925,19.925,0,0,1-408.193,330.806Z" transform="translate(451.821 -268.35)" fill="#ff5e4d"/>
    </g>
    <g id="Group_2411" data-name="Group 2411" transform="translate(1395.241 388)">
      <g id="Group_2410" data-name="Group 2410">
        <path id="Path_2987" data-name="Path 2987" d="M391.466,249.22l-12.8.128.5-44.476L393,204.21Z" transform="translate(-378.666 -156)" fill="#ff5e4d"/>
        <path id="Path_2988" data-name="Path 2988" d="M406.329,258.083l-14.3.143-2.06-67.694,16.364-1.093Z" transform="translate(-371.72 -165.081)" fill="#ff9a2e"/>
        <path id="Path_2989" data-name="Path 2989" d="M418.625,253.657l-14.8.148V197.137l14.8-.839Z" transform="translate(-363.2 -160.863)" fill="#e23e55"/>
        <path id="Path_2990" data-name="Path 2990" d="M418.625,253.693l-14.8.148V197.173l16.441-.932Z" transform="translate(-363.2 -160.899)" fill="#0f787a"/>
        <path id="Path_2991" data-name="Path 2991" d="M432.167,266.933l-15.319.153V176.016l19.863-1.663Z" transform="translate(-355.196 -174.353)" fill="#ff5e4d"/>
      </g>
    </g>
    <g id="Group_2416" data-name="Group 2416" transform="translate(1344.25 388.583)">
      <path id="Path_2992" data-name="Path 2992" d="M355.426,223.1l-5.521,5.746L355.8,262.7l5.6,3.219Z" transform="translate(-345.355 -144.968)" fill="#a4d1bb"/>
      <path id="Path_2993" data-name="Path 2993" d="M549.319,254.5s-25.873,51.417-41.658,54.356-87.622-23.053-87.622-23.053V275.552l71.835,1.721,17.045-35.259Z" transform="translate(-302.243 -133.344)" fill="#f18c72"/>
      <path id="Path_2994" data-name="Path 2994" d="M490.291,210.966c85.1,4.31,75.447,149.015,75.447,149.015H474.506S458.6,307.093,490.291,210.966Z" transform="translate(-271.215 -152.43)" fill="#a4d1bb"/>
      <g id="Group_2412" data-name="Group 2412" transform="translate(189.432 385.74)">
        <path id="Path_2995" data-name="Path 2995" d="M491.551,423.758s-.048,11.463-23.074,18.345c-4.723,1.411-3.187,2.81-4.074,4.8h26.5l10.375-11.665,3.228,2.772,7.481-7.35s-3.494-10.636-9.189-10.73Z" transform="translate(-464.403 -409.719)" fill="#122043"/>
        <path id="Path_2996" data-name="Path 2996" d="M477.445,413.6l6.089,14.038h0a10.385,10.385,0,0,0,10.767-3.271l.476-.56L491.3,413.6Z" transform="translate(-456.386 -413.605)" fill="#f7a57a"/>
      </g>
      <g id="Group_2413" data-name="Group 2413" transform="translate(195.459)">
        <path id="Path_2997" data-name="Path 2997" d="M500.06,196.59l2.89,26.8s-3.809,7.148-11.991,8.03-8.818-5.015-8.818-5.015l-1.883-17.457,11.768-4.461Z" transform="translate(-460.684 -161.267)" fill="#f18c72"/>
        <path id="Path_2998" data-name="Path 2998" d="M484.244,224.2c-2.527.2-4.905.036-6.244-.924-8.514-10.794-3.606-42.9-3.606-42.9l26.875,1.883,3.1,20.825a17.665,17.665,0,0,1-5.03,15.136h0A28.329,28.329,0,0,1,484.244,224.2Z" transform="translate(-465.155 -171.234)" fill="#f7a57a"/>
        <path id="Path_2999" data-name="Path 2999" d="M491.906,187.624a56.739,56.739,0,0,1-17.959,1.938c-9.381-.643-4.586-11.424-4.586-11.424s7.15,2.375,19.067-.72c8.041-2.089,10.068-3.912,15.608-1.684,7.526,3.028,7.2,16.084,7.2,16.084l-.99,27.649-1.5,1.922s-2.073-17.914-2.668-23.425c-1.81-2.345-3.48-2.164-4.7-1.4a4.145,4.145,0,0,0-1.781,3.977l3.049,28.267s-17.163,9.7-21.9,8.789-3.93-22.188-3.93-22.188a8.459,8.459,0,0,1,9.622,1.279c4.544,4.1,8.955-1.15,8.955-1.15Z" transform="translate(-468.136 -174.714)" fill="#122043"/>
        <path id="Path_3000" data-name="Path 3000" d="M491.564,187.653c-2.041.05-3.775,2.2-3.874,4.792s1.478,4.662,3.518,4.612,3.774-2.2,3.872-4.794S493.605,187.6,491.564,187.653Z" transform="translate(-456.118 -166.761)" fill="#f7a57a"/>
      </g>
      <path id="Path_3001" data-name="Path 3001" d="M498.839,303.252s-42.428,23.809-63.728,52.593a21.155,21.155,0,0,0-.43,24.658c30.741,44.311,71.382,102.957,71.382,102.957h15.942s-21.057-76.392-46.522-121.444C473.035,345.367,498.839,303.252,498.839,303.252Z" transform="translate(-295.549 -95.7)" fill="#122043"/>
      <path id="Path_3002" data-name="Path 3002" d="M429.52,262.784l-12.848,2.059L404.615,277.9s5.876,2.847,14.692-6.276c17.4-1.23,12.676-4.358,12.676-4.358Z" transform="translate(-311.724 -120.576)" fill="#f18c72"/>
      <path id="Path_3003" data-name="Path 3003" d="M557.778,263.88s-25.872,51.417-41.66,54.356-84.8-30.8-84.8-30.8L428.5,276.367l71.835,10.284,17.045-35.259Z" transform="translate(-297.043 -127.579)" fill="#f7a57a"/>
      <g id="Group_2414" data-name="Group 2414" transform="translate(71.926 395.196)">
        <path id="Path_3004" data-name="Path 3004" d="M423.562,426.139s-7.386,6.851-24.226,11.142c-3.709.943-7.705-.318-7.705,5.8h20.436l17-2.939v2.939h9.181s2.556-15.014-2.806-16.94Z" transform="translate(-391.631 -415.356)" fill="#122043"/>
        <path id="Path_3005" data-name="Path 3005" d="M413.211,419.461l-1.805,10.783h0a10.384,10.384,0,0,0,11.246.378l.63-.378,2.666-10.783Z" transform="translate(-379.475 -419.461)" fill="#f7a57a"/>
      </g>
      <path id="Path_3006" data-name="Path 3006" d="M412.164,273.265a2.7,2.7,0,0,1,1.713-2.726l10.756-4.187a11.589,11.589,0,0,1,8.284-.05l10.631,2.088,1.137,1.909.752,9.8c-2.067-.849-3.275-1.374-3.275-1.374l-6.822-.869s-14.668,9.913-19.412-1.427c-1.975,10.975-5.072,9.629-5.072,9.629Z" transform="translate(-307.887 -118.869)" fill="#f7a57a"/>
      <path id="Path_3007" data-name="Path 3007" d="M602.411,303.252S615.686,359.1,493.263,378.3a21.457,21.457,0,0,0-17.432,16.026c-10.5,41.472-49.153,100.887-49.153,100.887H410.856L436.52,381.9a41.045,41.045,0,0,1,12.22-21.122l62.438-57.526Z" transform="translate(-307.887 -95.7)" fill="#002f4c"/>
      <rect id="Rectangle_275" data-name="Rectangle 275" width="41.029" height="3.408" transform="translate(124.984 170.648) rotate(180)" fill="#a4d1bb"/>
      <g id="Group_2415" data-name="Group 2415" transform="translate(0 29.176)">
        <path id="Path_3008" data-name="Path 3008" d="M387.008,333.52h29.1v-4.406h-29.1a15.875,15.875,0,0,1-15.664-13.661l-19.906-122.67-4.35.707,19.9,122.616A20.284,20.284,0,0,0,387.008,333.52Z" transform="translate(-347.087 -192.783)" fill="#a4d1bb"/>
      </g>
      <path id="Path_3009" data-name="Path 3009" d="M349.781,192.783l2.967,2.3L371.479,307.36l-2.628,2.939Z" transform="translate(-345.431 -163.607)" fill="#122043"/>
    </g>
    <g id="Group_2431" data-name="Group 2431" transform="translate(1514.823 198.684)">
      <g id="Group_2430" data-name="Group 2430">
        <g id="Group_2421" data-name="Group 2421">
          <path id="Path_3014" data-name="Path 3014" d="M116.234,137.49l14.425-5.329a27.52,27.52,0,0,1-3.512-7.522,4.577,4.577,0,0,1,.9-3.819c10.948-14,3.8-22.858,3.8-22.858s-6.208-12.284-24.832-6.815c-19.855,5.83-12.336,22.617-12.336,22.617s2.654,9.9,15.107,12.7a6.192,6.192,0,0,1,4.1,3.248A22.123,22.123,0,0,1,116.234,137.49Z" fill="#fff130"/>
          <path id="Path_3015" data-name="Path 3015" d="M130.646,132.126l1.909,5.167c.715,1.936.035,3.987-1.51,4.558l-8.784,3.245c-1.545.571-3.4-.546-4.111-2.482l-1.909-5.166Z" fill="#53b6b9"/>
          <g id="Group_2420" data-name="Group 2420">
            <path id="Path_3016" data-name="Path 3016" d="M122.256,109.171c.685-4.894-5.457-4.927-6.976-1.188a3.042,3.042,0,0,0,.011,2.131c.424,1.221,1.139,3.105,1.139,3.105a23.23,23.23,0,0,1-2.455.312,10.821,10.821,0,0,0-1.571-3.272c-3.157-3.922-7.63,1.663-3.1,3.628a8.979,8.979,0,0,0,3.817.539l8.024,21.162.985-.364q-2.466-6.5-4.931-13.007-1.279-3.375-2.559-6.75c-.134-.353-.263-.734-.393-1.125a17.86,17.86,0,0,0,2.316-.412l7.591,20.546.985-.364-7.561-20.467c.2-.065.412-.127.6-.2C120.047,112.753,121.961,111.279,122.256,109.171Zm-9.433,4.423c-1.559.051-3.871-.163-4.566-1.482a1.134,1.134,0,0,1,.022-1.046c1.633-3.086,3.8.594,3.972,1.092A12.816,12.816,0,0,1,112.823,113.594Zm8.528-4.279a5.169,5.169,0,0,1-4,3.7l-1.162-3.147a2.316,2.316,0,0,1,.068-1.8,3.274,3.274,0,0,1,3.45-2.045C120.968,106.293,121.7,107.913,121.351,109.315Z" fill="#ff7730"/>
          </g>
          <path id="Path_3017" data-name="Path 3017" d="M130.136,142.187l-.121,2.728-5.462,2.018-2.067-1.92Z" fill="#0f787a"/>
        </g>
        <g id="Group_2425" data-name="Group 2425">
          <g id="Group_2422" data-name="Group 2422">
            <path id="Path_3018" data-name="Path 3018" d="M115.136,84.649a.7.7,0,0,0,.377-.76l-1.68-7.218a.434.434,0,0,0-.626-.309.693.693,0,0,0-.377.76l1.68,7.218A.435.435,0,0,0,115.136,84.649Z" fill="#ff7730"/>
          </g>
          <g id="Group_2423" data-name="Group 2423">
            <path id="Path_3019" data-name="Path 3019" d="M133.8,93.867a.693.693,0,0,1,.377-.76l6.775-3.041a.434.434,0,0,1,.626.309.693.693,0,0,1-.377.76l-6.775,3.041A.434.434,0,0,1,133.8,93.867Z" fill="#ff7730"/>
          </g>
          <g id="Group_2424" data-name="Group 2424">
            <path id="Path_3020" data-name="Path 3020" d="M126.739,88.036a.556.556,0,0,0,.71-.318l3.6-7.254a.5.5,0,1,0-.885-.438l-3.6,7.254A.553.553,0,0,0,126.739,88.036Z" fill="#ff7730"/>
          </g>
        </g>
        <g id="Group_2429" data-name="Group 2429">
          <g id="Group_2426" data-name="Group 2426">
            <path id="Path_3021" data-name="Path 3021" d="M95.83,91.663a.694.694,0,0,1-.777-.341l-3.345-6.613a.435.435,0,0,1,.282-.639.7.7,0,0,1,.777.341l3.344,6.613A.435.435,0,0,1,95.83,91.663Z" fill="#ff7730"/>
          </g>
          <g id="Group_2427" data-name="Group 2427">
            <path id="Path_3022" data-name="Path 3022" d="M87.437,110.709a.694.694,0,0,0-.777-.34l-7.147,2.017a.434.434,0,0,0-.281.639.694.694,0,0,0,.777.34l7.147-2.016A.436.436,0,0,0,87.437,110.709Z" fill="#ff7730"/>
          </g>
          <g id="Group_2428" data-name="Group 2428">
            <path id="Path_3023" data-name="Path 3023" d="M89.107,101.708a.555.555,0,0,1-.749.211l-7.419-3.25a.5.5,0,1,1,.4-.9l7.418,3.25A.552.552,0,0,1,89.107,101.708Z" fill="#ff7730"/>
          </g>
        </g>
      </g>
    </g>
    <g id="Group_2437" data-name="Group 2437" transform="translate(1564.823 -56.316)">
      <path id="Path_3031" data-name="Path 3031" d="M143.585,441.773,91.94,458.105l31.089,8.486Z" fill="#fc2f1f"/>
      <path id="Path_3032" data-name="Path 3032" d="M123.4,467.78l-32.2-8.789,10.72,33.9,53.489-16.915-10.72-33.9Z" fill="#fff" stroke="#fc2f1f" stroke-width="1"/>
    </g>
    <g id="Group_2409" data-name="Group 2409" transform="translate(1182.458 481.661)">
      <g id="Group_2403" data-name="Group 2403" transform="translate(33.934)">
        <path id="Path_2980" data-name="Path 2980" d="M585.367,392.058l1.5,15.776L574.28,399.3l-41.459-33.392Z" transform="translate(-532.821 -365.911)" fill="#a4d1bb"/>
        <path id="Path_2981" data-name="Path 2981" d="M571.829,393.032l-22.92-10.5,6.905-.788Z" transform="translate(-517.779 -351.108)" fill="#53b6b9"/>
        <path id="Path_2982" data-name="Path 2982" d="M585.367,392.058l9.061-11.333-61.608-14.814Z" transform="translate(-532.821 -365.911)" fill="url(#linear-gradient)"/>
        <path id="Path_2983" data-name="Path 2983" d="M532.821,365.911,574.28,399.3l-14.187,15.9Z" transform="translate(-532.821 -365.911)" fill="url(#linear-gradient-2)"/>
      </g>
      <g id="Group_2408" data-name="Group 2408" transform="translate(0 45.835)">
        <g id="Group_2404" data-name="Group 2404" transform="translate(73.167)">
          <path id="Path_2984" data-name="Path 2984" d="M557.614,397.032a1.177,1.177,0,0,0,.435-.137,1.23,1.23,0,0,0,.5-1.637,33.433,33.433,0,0,0-3.336-5.211,1.162,1.162,0,0,0-1.666-.176,1.224,1.224,0,0,0-.2,1.7,30.8,30.8,0,0,1,3.1,4.841A1.161,1.161,0,0,0,557.614,397.032Z" transform="translate(-553.097 -389.598)" fill="#53b6b9"/>
        </g>
        <g id="Group_2406" data-name="Group 2406" transform="translate(12.774 11.786)">
          <g id="Group_2405" data-name="Group 2405">
            <path id="Path_2985" data-name="Path 2985" d="M522.219,508.318a1.227,1.227,0,0,1,.983-1.4,33.584,33.584,0,0,0,10.863-4.081,1.167,1.167,0,0,1,1.612.445,1.233,1.233,0,0,1-.46,1.651,35.909,35.909,0,0,1-11.637,4.363.506.506,0,0,1-.075.01A1.166,1.166,0,0,1,522.219,508.318Zm17.454-7.85a1.225,1.225,0,0,1,.176-1.7,43.962,43.962,0,0,0,7.957-8.756,1.183,1.183,0,0,1,1.653-.315,1.216,1.216,0,0,1,.284,1.681,46.359,46.359,0,0,1-8.4,9.241,1.179,1.179,0,0,1-.631.273A1.16,1.16,0,0,1,539.673,500.468Zm12.221-15.037a1.205,1.205,0,0,1-.561-1.6l.226-.5a57.263,57.263,0,0,0,3.533-10.836,1.2,1.2,0,0,1,1.418-.933,1.187,1.187,0,0,1,.9,1.432,59.773,59.773,0,0,1-3.686,11.306l-.244.534a1.21,1.21,0,0,1-.958.7A1.176,1.176,0,0,1,551.894,485.431Zm5.416-18.709a1.18,1.18,0,0,1-1.043-1.32,89.422,89.422,0,0,0,.494-12.022,1.234,1.234,0,0,1,1.159-1.254,1.175,1.175,0,0,1,1.215,1.159,91.737,91.737,0,0,1-.511,12.355,1.22,1.22,0,0,1-1.062,1.08A1.207,1.207,0,0,1,557.31,466.722Zm.346-19.487a1.172,1.172,0,0,1-1.281-1.084c-.029-.337-.058-.675-.089-1.012a39.14,39.14,0,0,1-4.04-.151,1.181,1.181,0,0,1-1.058-1.308,1.213,1.213,0,0,1,1.3-1.1q1.776.163,3.56.145c-.286-2.69-.654-5.511-1.118-8.574a1.225,1.225,0,0,1,.993-1.391,1.17,1.17,0,0,1,1.353.989c.484,3.175.861,6.1,1.153,8.882a35.731,35.731,0,0,0,5.609-.863,1.162,1.162,0,0,1,1.413.9,1.229,1.229,0,0,1-.906,1.451,38.389,38.389,0,0,1-5.884.911c.027.294.052.586.076.882a1.224,1.224,0,0,1-1.068,1.318Zm12.378-6.169a1.229,1.229,0,0,1,.592-1.606,30.493,30.493,0,0,0,9.361-6.879,1.174,1.174,0,0,1,1.68-.062,1.219,1.219,0,0,1,.037,1.7,33.606,33.606,0,0,1-3.533,3.3,33.125,33.125,0,0,1-6.567,4.12,1.2,1.2,0,0,1-.375.108A1.164,1.164,0,0,1,570.034,441.066Zm-25.052,2.574a36.193,36.193,0,0,1-11.093-5.3,1.212,1.212,0,0,1-.275-1.68,1.179,1.179,0,0,1,1.656-.3,33.851,33.851,0,0,0,10.387,4.961,1.193,1.193,0,0,1,.8,1.488,1.223,1.223,0,0,1-1.026.875A1.16,1.16,0,0,1,544.982,443.64ZM584.6,428.58a1.21,1.21,0,0,1-.4-1.654,37.6,37.6,0,0,0,4.323-10.971,1.2,1.2,0,0,1,1.422-.929,1.187,1.187,0,0,1,.892,1.432,40.071,40.071,0,0,1-4.609,11.7,1.21,1.21,0,0,1-.9.586A1.151,1.151,0,0,1,584.6,428.58Zm-56.238,4.776a31.032,31.032,0,0,1-2-2.533,25.507,25.507,0,0,1-3.9-8.5,1.228,1.228,0,0,1,.857-1.482,1.167,1.167,0,0,1,1.442.849,23.169,23.169,0,0,0,3.537,7.7,28.551,28.551,0,0,0,1.854,2.339,1.226,1.226,0,0,1-.1,1.707,1.188,1.188,0,0,1-.67.306A1.162,1.162,0,0,1,528.357,433.355Zm25.364-6.341A44.779,44.779,0,0,0,550.2,415.78a1.229,1.229,0,0,1,.53-1.627,1.168,1.168,0,0,1,1.592.515,47.018,47.018,0,0,1,3.727,11.834,1.23,1.23,0,0,1-.929,1.438c-.041.008-.081.014-.122.019A1.17,1.17,0,0,1,553.721,427.014Zm36.869-16.859a1.174,1.174,0,0,1-1.134-1.24,39.6,39.6,0,0,0-.139-5.381,37.307,37.307,0,0,0-1.149-6.294,1.226,1.226,0,0,1,.824-1.5,1.156,1.156,0,0,1,1.461.817,39.525,39.525,0,0,1,1.227,6.707,41.705,41.705,0,0,1,.149,5.718,1.226,1.226,0,0,1-1.072,1.167A1.174,1.174,0,0,1,590.59,410.155Zm-67.67,5.8a1.183,1.183,0,0,1-1.024-1.337,13.731,13.731,0,0,1,4.362-8.669,12.272,12.272,0,0,1,2.906-1.935,1.163,1.163,0,0,1,1.571.577,1.231,1.231,0,0,1-.592,1.608,9.8,9.8,0,0,0-2.332,1.552,11.155,11.155,0,0,0-3.562,7.14,1.216,1.216,0,0,1-1.06,1.062A1.137,1.137,0,0,1,522.92,415.958Zm23.425-5.832a16.583,16.583,0,0,0-9.8-4.882,1.182,1.182,0,0,1-1.029-1.333,1.219,1.219,0,0,1,1.328-1.068,18.715,18.715,0,0,1,11.215,5.586,1.222,1.222,0,0,1-.037,1.707,1.179,1.179,0,0,1-.7.342A1.159,1.159,0,0,1,546.344,410.126Z" transform="translate(-521.886 -395.689)" fill="#53b6b9"/>
          </g>
        </g>
        <g id="Group_2407" data-name="Group 2407" transform="translate(0 122.221)">
          <path id="Path_2986" data-name="Path 2986" d="M522.384,456.319a1.225,1.225,0,0,0,1.066-1.1,1.183,1.183,0,0,0-1.068-1.3,24.78,24.78,0,0,1-5.54-1.1,1.21,1.21,0,0,0-.743,2.3,27.206,27.206,0,0,0,6.054,1.2A1.3,1.3,0,0,0,522.384,456.319Z" transform="translate(-515.284 -452.762)" fill="#53b6b9"/>
        </g>
      </g>
    </g>
  </g>
</svg>
